#!OML:ASF E:/inclinewalkrobotboard/Project1/Captureday1/Session1/subject1.ASF
:FULLY-SPECIFIED
:DEGREES
26
root 0 0 0 1.8375790061475188 -3.886562559514688 2.1835011268277187
lowerback 11.989089508876168 1.1615997915709502 -0.1041915044757904
upperback -4.458186171621773 1.4589023835794996 -0.8557751339887253
thorax -11.569744893013823 0.6756965453423097 -1.1302128091818855
lowerneck -6.234629411580905 1.756530339500319 4.836901393664263
upperneck 18.17191461876827 3.2917404866980933 -8.494226220463483
head 6.695201151680421 1.2251851466235766 -3.2949344193277117
rclavicle -2.164392819008125E-15 -1.1058260802616076E-15
rhumerus 23.25574881191711 17.834453252472684 -48.49182067545132
rradius 74.89806284670934
rwrist 25.823297898614136
rhand -34.82006941474837 -58.11043344933706
rfingers 7.12502
rthumb -7.962774348280426 -88.02104057105905
lclavicle -1.1342451268228248E-15 -8.426394590989976E-16
lhumerus 22.44982326931803 -14.56471430774217 45.7687674432928
lradius 71.35533884942821
lwrist -21.377990754564443
lhand -45.275255558845366 -69.01949612215655
lfingers 7.125020000000012
lthumb -18.04939282608236 -39.77226465040465
rfemur -24.661476696019008 -0.8406229234626728 18.5290370983182
rtibia 45.23941150997791
rfoot -32.86949121682189 -17.884893930973398
rtoes -22.900124584519002
lfemur -26.611656106170507 1.8885767688866362 -15.423571646888956
ltibia 45.350358663836474
lfoot -32.21773646372077 3.245016128813905
ltoes -21.480648015343203
27
root 0 0 0 1.8436801955145818 -3.8920771784605814 2.1773260993344
lowerback 11.988110421878991 1.1632122089526193 -0.09910146476171833
upperback -4.457357519787727 1.4619233904766027 -0.8545547215790136
thorax -11.568076883985118 0.6770308179051041 -1.1322365572812272
lowerneck -6.2388981671113015 1.7552134900492835 4.835254226330831
upperneck 18.170558623566766 3.289687530190312 -8.491703899151018
head 6.695501189589287 1.2243143492258168 -3.2940794710692085
rclavicle -2.1706898536309893E-15 -1.0930929678956698E-15
rhumerus 23.268700503567068 17.85153441338568 -48.502247746205335
rradius 74.90745733178244
rwrist 25.811637436167246
rhand -34.82018377471999 -58.10798663623153
rfingers 7.12502
rthumb -7.963259947940779 -88.019214604513
lclavicle -1.1278360659338625E-15 -8.295134849245643E-16
lhumerus 22.45218676082559 -14.569656753720466 45.77000473175569
lradius 71.35825545641502
lwrist -21.375848648489722
lhand -45.2745811115377 -69.01269412813801
lfingers 7.125020000000012
lthumb -18.049090645919858 -39.76634263267515
rfemur -24.601720192550058 -0.7796559770984333 18.61162158445577
rtibia 44.85393037038217
rfoot -33.10304481939021 -17.91022216558297
rtoes -22.978806576526544
lfemur -26.6565382692499 1.8607960174752258 -15.396431507119786
ltibia 45.1678952912998
lfoot -32.25708930394044 3.323244803348058
ltoes -21.486180792700406
28
root 0 0 0 1.846175874567927 -3.8957058759487913 2.174170895429208
lowerback 11.986512795146545 1.1651624946189005 -0.0954511328271137
upperback -4.457205355268157 1.4650645373213544 -0.8546695654583577
thorax -11.566694368082583 0.678419711747495 -1.1350299985409085
lowerneck -6.239959716499633 1.75341877206495 4.833603696786527
upperneck 18.172453228474236 3.287038499454198 -8.488972363964976
head 6.696408236109692 1.22319492354216 -3.293188393268114
rclavicle -2.1585356072409844E-15 -1.096753977981498E-15
rhumerus 23.279490820125446 17.867680910563834 -48.5134148069572
rradius 74.91679238641478
rwrist 25.799313429612024
rhand -34.8202194620692 -58.106188460614355
rfingers 7.12502
rthumb -7.962960579094036 -88.01643530344325
lclavicle -1.1201626718902625E-15 -8.329956400098279E-16
lhumerus 22.448088578020517 -14.569057464313635 45.7730724425308
lradius 71.35558259333305
lwrist -21.37296354605173
lhand -45.273475466922974 -69.00773962548126
lfingers 7.125020000000012
lthumb -18.047565105193737 -39.76007411406884
rfemur -24.54185722591174 -0.7520540329722016 18.642887216679426
rtibia 44.69365648382286
rfoot -33.17779984833754 -17.912601634178294
rtoes -23.046637221647114
lfemur -26.66185384180288 1.8370925758790273 -15.40085358489242
ltibia 44.98297306785221
lfoot -32.32215876756443 3.3926704142998734
ltoes -21.486774330430976
29
root 0 0 0 1.848254933738961 -3.8979715964671695 2.1722282601967517
lowerback 11.985120100087528 1.1665294021331905 -0.09313802972351826
upperback -4.457071335716723 1.4672088660123948 -0.8548703927702733
thorax -11.565585277159434 0.6793876341042628 -1.1369161927247513
lowerneck -6.241023705697715 1.7521576450764604 4.8325536707522
upperneck 18.17387417211656 3.2851172649880604 -8.487112298812733
head 6.697113148826912 1.2223746738867178 -3.2926240719212077
rclavicle -2.152744114947618E-15 -1.0952149661959893E-15
rhumerus 23.281723334801484 17.871553954492356 -48.517048833339885
rradius 74.91840250336935
rwrist 25.795488424665642
rhand -34.8198289356796 -58.10386750377115
rfingers 7.12502
rthumb -7.962609949218708 -88.01407231098185
lclavicle -1.1127504037060643E-15 -8.321674254267705E-16
lhumerus 22.443643365720135 -14.563365253672284 45.772387248127416
lradius 71.35105912698802
lwrist -21.37527451937965
lhand -45.2725077318825 -69.00868707136425
lfingers 7.125020000000012
lthumb -18.046605451945673 -39.76083055686793
rfemur -24.499471567861843 -0.7362972857984746 18.662331535434117
rtibia 44.60498925393622
rfoot -33.214312534527366 -17.90842409465496
rtoes -23.08775258703974
lfemur -26.645651053803277 1.8177630159569529 -15.404673461077326
ltibia 44.85050026313621
lfoot -32.3485461940489 3.4299164184907065
ltoes -21.49412641553817
30
root 0 0 0 1.8491320136969152 -3.898288294867962 2.172003380813399
lowerback 11.984080742653052 1.1669629222765452 -0.09263573505945732
upperback -4.457147744470105 1.4678449677214136 -0.8551115358130185
thorax -11.564951811201398 0.6796824856461345 -1.1375933966168792
lowerneck -6.2411460526198255 1.7514060519598804 4.8319951467567455
upperneck 18.17564567358729 3.284039413986336 -8.48624706557587
head 6.697757080403621 1.2218883392771125 -3.2923909773007356
rclavicle -2.148638114407366E-15 -1.0943833152785733E-15
rhumerus 23.278610902284335 17.868144424425907 -48.51608364733424
rradius 74.91568449534807
rwrist 25.79676879505191
rhand -34.81936586258629 -58.10209015258682
rfingers 7.12502
rthumb -7.9621520773021075 -88.01230935033351
lclavicle -1.1089403178436769E-15 -8.317392883145162E-16
lhumerus 22.438638399103006 -14.555635329214592 45.770698315025115
lradius 71.34561694968424
lwrist -21.379055966852505
lhand -45.27181811145445 -69.01271822905107
lfingers 7.125020000000012
lthumb -18.04592329101909 -39.76445664949354
rfemur -24.473093320476586 -0.7343284859336556 18.664708317897407
rtibia 44.600439776899414
rfoot -33.204355430875026 -17.898457474060287
rtoes -23.109987369919065
lfemur -26.61326027870532 1.8035648192005924 -15.411818353562154
ltibia 44.767815057052566
lfoot -32.34632183721466 3.438624831054015
ltoes -21.501085285421354
31
root 0 0 0 1.8489452572358274 -3.8975549859870355 2.172601451469909
lowerback 11.983528163697066 1.1669110659351611 -0.09300348559167648
upperback -4.457318198197512 1.4677004371717195 -0.8553474418533648
thorax -11.564777972383261 0.6796248020131156 -1.1376408227334278
lowerneck -6.240675144326246 1.7511387018593931 4.83192634883113
upperneck 18.177060529744402 3.283690727403357 -8.486171312289189
head 6.698162266178455 1.2217116564320611 -3.2924107451564257
rclavicle -2.1456867970152688E-15 -1.0951899865082142E-15
rhumerus 23.27250548578074 17.860439366560826 -48.51223317956841
rradius 74.91060786368033
rwrist 25.80123474651523
rhand -34.81893760112857 -58.10099316907507
rfingers 7.12502
rthumb -7.961727328983022 -88.01132843500679
lclavicle -1.1068015340412903E-15 -8.334036764812115E-16
lhumerus 22.43418513315104 -14.547818824939078 45.768552069756296
lradius 71.34047645503509
lwrist -21.383260893124543
lhand -45.271373548898495 -69.0179200510509
lfingers 7.125020000000012
lthumb -18.045497080662088 -39.769446127208994
rfemur -24.461332826348535 -0.7423233574030155 18.654916185571416
rtibia 44.65681333562198
rfoot -33.16212490643534 -17.886236863004424
rtoes -23.11333608131486
lfemur -26.582615916524404 1.797900306287703 -15.417239673339216
ltibia 44.74849865032977
lfoot -32.32376128074749 3.4247186512237304
ltoes -21.506661056165605
32
root 0 0 0 1.847720542491012 -3.8954858096721607 2.170804356593031
lowerback 11.984270552731218 1.165979725204847 -0.09187077362630292
upperback -4.457509259239647 1.46663366957812 -0.8544536303454301
thorax -11.565620711184001 0.6791000374605313 -1.1371546400971522
lowerneck -6.240079902123845 1.7519865922315512 4.833333075408683
upperneck 18.177158218548684 3.2850046719828043 -8.488389155001729
head 6.698035462860274 1.2221933916623784 -3.2932254174663607
rclavicle -2.156288307754821E-15 -1.0921880214343034E-15
rhumerus 23.255892727740793 17.83671323149526 -48.49708236817176
rradius 74.89622665426072
rwrist 25.8181016770506
rhand -34.81859564173166 -58.10169781280513
rfingers 7.12502
rthumb -7.961714713750849 -88.01334344147588
lclavicle -1.1127473258842203E-15 -8.325225162440183E-16
lhumerus 22.43204009851214 -14.538420197507682 45.76311619698356
lradius 71.33635580231561
lwrist -21.39125448440425
lhand -45.27162369345358 -69.02849845407485
lfingers 7.125020000000012
lthumb -18.04618477968009 -39.78099967954897
rfemur -24.45810276554134 -0.7514748576889292 18.65125427721189
rtibia 44.723879107373016
rfoot -33.124075437115934 -17.87324138642029
rtoes -23.084001179127085
lfemur -26.59167832160047 1.8164488046422669 -15.375077300949574
ltibia 44.97304345209829
lfoot -32.16601855445754 3.314647283330122
ltoes -21.529079810928472
